# xmcd
#
# Track frame offsets: 
#        150
#        17347
#        32529
#        45551
#        70212
#        90088
#        110476
#        128948
#        145253
#        160381
#        175872
#        189712
#        213813
#        233805
#        248182
#        268476
#        285712
#        303814
#
# Disc length: 4318 seconds
#
# Revision: 3
# Processed by: cddbd v1.5.2PL0 Copyright (c) Steve Scherf et al.
# Submitted via: ExactAudioCopyFreeDBPlugin 1.0
#
DISCID=f510dc12
DTITLE=Various Artist - Best Of Forever Love 18 Vol.3
DYEAR=1999
DGENRE=Blues
TTITLE0=Jane Healy - The Color Of The Night
TTITLE1=Tanya K - Big Big World
TTITLE2=Kelly Lavelle and Adam Wester - You Are The Love Of My Life
TTITLE3=The Punchhes - To Love You More
TTITLE4=Belinda Kay and Che Black - In Love With You
TTITLE5=Sarah Black - Dreams
TTITLE6=Poizé - I'll Be There For You
TTITLE7=Hazel Payne - Sukiyaki
TTITLE8=Maggie Montague - Close To You
TTITLE9=Jude Hopley - Try To Remember
TTITLE10=Joe O'Connor - Because I Love You
TTITLE11=Elsa - Dreaming
TTITLE12=Leena Feen and Gabriella Stap - When You Believe
TTITLE13=Galle - Out Here On My Own
TTITLE14=Jacques Fygi - Just Once
TTITLE15=Moneytrap - Paint My Love
TTITLE16=Michelle Oates - Memory
TTITLE17=Lisa Jozer - Uninvited
EXTD=
EXTT0=
EXTT1=
EXTT2=
EXTT3=
EXTT4=
EXTT5=
EXTT6=
EXTT7=
EXTT8=
EXTT9=
EXTT10=
EXTT11=
EXTT12=
EXTT13=
EXTT14=
EXTT15=
EXTT16=
EXTT17=
PLAYORDER=
